<svg width="199" height="24" viewBox="0 0 199 24" fill="none" xmlns="http://www.w3.org/2000/svg">
<path d="M1.99944 9.99939L0 11.9988L1.99944 13.9983L3.99888 11.9988L1.99944 9.99939Z" fill="white"/>
<path d="M4.49932 7.49954L2.49988 9.49898L4.49932 11.4984L6.49876 9.49898L4.49932 7.49954Z" fill="white"/>
<path d="M6.99932 4.99969L4.99988 6.99913L6.99932 8.99857L8.99875 6.99913L6.99932 4.99969Z" fill="white"/>
<path d="M11.9991 -4.12763e-06L9.99963 1.99944L11.9991 3.99887L13.9985 1.99943L11.9991 -4.12763e-06Z" fill="white"/>
<path d="M9.4992 2.49986L7.49976 4.4993L9.4992 6.49874L11.4986 4.4993L9.4992 2.49986Z" fill="white"/>
<path d="M20.0008 12.0006L22.0002 14.0001L23.9997 12.0006L22.0002 10.0012L20.0008 12.0006Z" fill="white"/>
<path d="M17.5009 9.50062L19.5004 11.5001L21.4998 9.50062L19.5004 7.50118L17.5009 9.50062Z" fill="white"/>
<path d="M15.001 7.00061L17.0005 9.00005L18.9999 7.00061L17.0005 5.00117L15.001 7.00061Z" fill="white"/>
<path d="M12.501 4.50061L14.5005 6.50005L16.4999 4.50061L14.5005 2.50117L12.501 4.50061Z" fill="white"/>
<path d="M12.0001 5.20012L10.1 7.10023L12.0001 9.00035L13.9002 7.10023L12.0001 5.20012Z" fill="white"/>
<path d="M9.50122 7.89664L7.70044 9.69742L9.50122 11.4982L11.302 9.69742L9.50122 7.89664Z" fill="white"/>
<path d="M14.501 7.89673L12.7002 9.69751L14.501 11.4983L16.3018 9.69751L14.501 7.89673Z" fill="white"/>
<path d="M7.0004 10.5987L5.30078 12.2983L7.0004 13.9979L8.70001 12.2983L7.0004 10.5987Z" fill="white"/>
<path d="M12.0003 10.5988L10.3007 12.2984L12.0003 13.998L13.6999 12.2984L12.0003 10.5988Z" fill="white"/>
<path d="M16.9999 10.5988L15.3003 12.2985L16.9999 13.9981L18.6995 12.2985L16.9999 10.5988Z" fill="white"/>
<path d="M4.50153 13.2989L2.90125 14.8992L4.50153 16.4994L6.10182 14.8992L4.50153 13.2989Z" fill="white"/>
<path d="M9.50129 13.299L7.901 14.8992L9.50129 16.4995L11.1016 14.8992L9.50129 13.299Z" fill="white"/>
<path d="M14.501 13.2991L12.9008 14.8993L14.501 16.4996L16.1013 14.8993L14.501 13.2991Z" fill="white"/>
<path d="M19.5009 13.2991L17.9006 14.8994L19.5009 16.4997L21.1012 14.8994L19.5009 13.2991Z" fill="white"/>
<path d="M6.99977 16.1995L5.59998 17.5993L6.99977 18.9991L8.39956 17.5993L6.99977 16.1995Z" fill="white"/>
<path d="M11.9995 16.1996L10.5997 17.5994L11.9995 18.9992L13.3993 17.5994L11.9995 16.1996Z" fill="white"/>
<path d="M16.9993 16.1997L15.5995 17.5995L16.9993 18.9993L18.3991 17.5995L16.9993 16.1997Z" fill="white"/>
<path d="M9.49983 19.0983L8.30054 20.2976L9.49983 21.4969L10.6991 20.2976L9.49983 19.0983Z" fill="white"/>
<path d="M14.4996 19.0984L13.3003 20.2977L14.4996 21.497L15.6989 20.2977L14.4996 19.0984Z" fill="white"/>
<path d="M11.9999 21.9971L10.9993 22.9978L11.9999 23.9984L13.0005 22.9978L11.9999 21.9971Z" fill="white"/>
<path d="M31.9703 14.4154V18.1385H29.9998V6.01846C31.8827 6.01846 33.8188 6 35.7018 6C41.5789 6 41.5977 14.3785 35.7018 14.4123H31.9703V14.4154ZM31.9703 12.6338H35.7018C38.9578 12.6338 38.939 7.78769 35.7018 7.78769H31.9703V12.6338Z" fill="white"/>
<path d="M64.7716 14.5354C64.9311 15.8338 66.0196 16.6831 67.6054 16.6831C68.4843 16.6831 69.5947 16.3538 70.1202 15.7662L71.2994 16.8923C70.4017 17.8615 68.9066 18.3477 67.5679 18.3477C64.7184 18.3477 62.8887 16.5662 62.8887 13.8308C62.8887 11.2338 64.7372 9.38154 67.4459 9.38154C70.2453 9.38154 72.1439 11.0615 71.8092 14.5415H64.7716V14.5354ZM70.067 13.0308C69.9607 11.68 68.9598 10.9723 67.4991 10.9723C66.1791 10.9723 65.0875 11.6831 64.806 13.0308H70.067Z" fill="white"/>
<path d="M73.4451 18.139V6.03746H82.156V7.92361H75.4156V11.6098H81.1708V13.4098H75.4156V18.1359H73.4451V18.139Z" fill="white"/>
<path d="M94.0636 9.60308L91.699 15.7815L89.3219 9.60308H87.3826L90.7325 18.3046L90.5073 18.8954L89.2812 22.1015H91.2173L91.7053 20.8277L91.7334 20.7538L92.4466 18.8923L92.6718 18.3015L95.9998 9.60308H94.0636Z" fill="white"/>
<path d="M85.7781 6.0281H83.8076V18.1358H85.7781V6.0281Z" fill="white"/>
<path d="M48.7104 9.60307V10.9477C48.163 9.98154 46.9869 9.41538 45.7577 9.41538C43.2586 9.41538 41.2693 11.0092 41.2693 13.8646C41.2693 16.7723 43.1866 18.3815 45.7202 18.3661C46.7899 18.3661 48.1255 17.8492 48.7072 16.7631V18.1415H50.6777V9.60307H48.7104ZM45.8985 16.7015C44.3502 16.7015 43.0834 15.6277 43.0834 13.8615C43.0834 12.1138 44.3502 11.04 45.8985 11.04C49.6456 11.04 49.6456 16.7015 45.8985 16.7015Z" fill="white"/>
<path d="M61.6032 13.8923C61.6032 12.8 61.2654 11.7969 60.3865 10.8923L61.7345 9.56616L60.3427 8.19385L58.8163 9.69539C58.2439 9.44616 57.5464 9.36308 56.9772 9.36308C54.6188 9.36308 52.2761 10.8769 52.2792 13.8892C52.2792 16.2646 53.4114 18.1323 56.6393 18.24C58.7537 18.3108 59.7077 19.0739 59.7077 20.3323C59.7077 21.6092 58.2814 22.1754 56.9459 22.1754C55.504 22.1569 54.1308 21.4092 54.1809 20.0031H52.3699C52.3011 22.5046 54.1121 24 56.9459 24C59.2667 24 61.5907 22.7754 61.5907 20.3323C61.5907 19.2554 61.0808 18.0123 59.3042 17.3938C60.8463 16.7785 61.6032 15.4831 61.6032 13.8923ZM56.9772 16.6492C56.2734 16.6492 55.6228 16.4554 55.1192 16.0769C54.5906 15.68 54.2278 15.0831 54.134 14.3046C54.1183 14.1723 54.1089 14.0369 54.1089 13.8923C54.1089 12.0123 55.5008 11.1169 56.9772 11.1169C57.1023 11.1169 57.2274 11.1231 57.3494 11.1385C58.0719 11.2185 58.7287 11.5446 59.1791 12.0831C59.5607 12.5385 59.7953 13.1477 59.7953 13.8923C59.7922 15.52 58.5786 16.6492 56.9772 16.6492Z" fill="white"/>
<path d="M101.445 18H105.156C108.602 18 110.508 15.8672 110.508 12.3672V12.3516C110.508 8.85938 108.594 6.72656 105.156 6.72656H101.445V18ZM102.516 17.0312V7.69531H105.094C107.844 7.69531 109.414 9.45312 109.414 12.3594V12.375C109.414 15.2812 107.852 17.0312 105.094 17.0312H102.516Z" fill="white"/>
<path d="M116.211 18.1406C118.07 18.1406 119.297 17.125 119.625 15.9844L119.648 15.9219H118.609L118.578 15.9766C118.305 16.6328 117.461 17.2109 116.234 17.2109C114.562 17.2109 113.484 16.0312 113.453 14.0625H119.773V13.625C119.773 11.1328 118.383 9.44531 116.125 9.44531C113.867 9.44531 112.398 11.1797 112.398 13.8047V13.8203C112.398 16.4609 113.852 18.1406 116.211 18.1406ZM116.125 10.3672C117.57 10.3672 118.609 11.3516 118.727 13.2188H113.461C113.594 11.3984 114.672 10.3672 116.125 10.3672Z" fill="white"/>
<path d="M124.227 18H125.32L128.461 9.58594H127.359L124.82 16.8828H124.727L122.18 9.58594H121.086L124.227 18Z" fill="white"/>
<path d="M133.398 18.1406C135.258 18.1406 136.484 17.125 136.812 15.9844L136.836 15.9219H135.797L135.766 15.9766C135.492 16.6328 134.648 17.2109 133.422 17.2109C131.75 17.2109 130.672 16.0312 130.641 14.0625H136.961V13.625C136.961 11.1328 135.57 9.44531 133.312 9.44531C131.055 9.44531 129.586 11.1797 129.586 13.8047V13.8203C129.586 16.4609 131.039 18.1406 133.398 18.1406ZM133.312 10.3672C134.758 10.3672 135.797 11.3516 135.914 13.2188H130.648C130.781 11.3984 131.859 10.3672 133.312 10.3672Z" fill="white"/>
<path d="M139.258 18H140.289V6.23438H139.258V18Z" fill="white"/>
<path d="M146.406 18.1406C148.758 18.1406 150.234 16.4766 150.234 13.7969V13.7812C150.234 11.1016 148.758 9.44531 146.406 9.44531C144.055 9.44531 142.586 11.1016 142.586 13.7812V13.7969C142.586 16.4766 144.055 18.1406 146.406 18.1406ZM146.406 17.2188C144.672 17.2188 143.641 15.9219 143.641 13.7969V13.7812C143.641 11.6562 144.672 10.3672 146.406 10.3672C148.141 10.3672 149.172 11.6562 149.172 13.7812V13.7969C149.172 15.9219 148.141 17.2188 146.406 17.2188Z" fill="white"/>
<path d="M152.445 20.7891H153.477V16.3594H153.578C154.039 17.4453 155.125 18.1406 156.398 18.1406C158.531 18.1406 159.961 16.4062 159.961 13.7969V13.7812C159.961 11.1875 158.531 9.44531 156.398 9.44531C155.109 9.44531 154.07 10.1328 153.578 11.2578H153.477V9.58594H152.445V20.7891ZM156.188 17.2188C154.531 17.2188 153.461 15.875 153.461 13.7969V13.7812C153.461 11.7109 154.531 10.3672 156.188 10.3672C157.852 10.3672 158.906 11.7031 158.906 13.7812V13.7969C158.906 15.8828 157.852 17.2188 156.188 17.2188Z" fill="white"/>
<path d="M162.164 18H163.195V12.8359C163.195 11.4609 164.133 10.3672 165.352 10.3672C166.516 10.3672 167.281 11.1562 167.281 12.3672V18H168.312V12.6641C168.312 11.3594 169.18 10.3672 170.477 10.3672C171.742 10.3672 172.406 11.1016 172.406 12.4766V18H173.445V12.2422C173.445 10.4609 172.469 9.44531 170.781 9.44531C169.57 9.44531 168.586 10.0938 168.156 11.1016H168.055C167.695 10.0938 166.852 9.44531 165.672 9.44531C164.523 9.44531 163.656 10.0625 163.297 11.0703H163.195V9.58594H162.164V18Z" fill="white"/>
<path d="M179.398 18.1406C181.258 18.1406 182.484 17.125 182.812 15.9844L182.836 15.9219H181.797L181.766 15.9766C181.492 16.6328 180.648 17.2109 179.422 17.2109C177.75 17.2109 176.672 16.0312 176.641 14.0625H182.961V13.625C182.961 11.1328 181.57 9.44531 179.312 9.44531C177.055 9.44531 175.586 11.1797 175.586 13.8047V13.8203C175.586 16.4609 177.039 18.1406 179.398 18.1406ZM179.312 10.3672C180.758 10.3672 181.797 11.3516 181.914 13.2188H176.648C176.781 11.3984 177.859 10.3672 179.312 10.3672Z" fill="white"/>
<path d="M185.18 18H186.211V13C186.211 11.4141 187.219 10.3672 188.703 10.3672C190.164 10.3672 190.891 11.1875 190.891 12.7891V18H191.922V12.5312C191.922 10.5703 190.852 9.44531 188.977 9.44531C187.664 9.44531 186.758 10.0469 186.312 11.0625H186.211V9.58594H185.18V18Z" fill="white"/>
<path d="M197.273 18.0547C197.523 18.0547 197.758 18.0312 197.992 17.9922V17.1016C197.781 17.125 197.625 17.1328 197.391 17.1328C196.438 17.1328 196.07 16.7031 196.07 15.6719V10.4531H197.992V9.58594H196.07V7.39844H195V9.58594H193.648V10.4531H195V15.9062C195 17.4375 195.664 18.0547 197.273 18.0547Z" fill="white"/>
</svg>
