<svg width="134" height="24" viewBox="0 0 134 24" fill="none" xmlns="http://www.w3.org/2000/svg">
<path d="M1.99944 9.9994L0 11.9988L1.99944 13.9983L3.99888 11.9988L1.99944 9.9994Z" fill="white"/>
<path d="M4.49932 7.49954L2.49988 9.49898L4.49932 11.4984L6.49876 9.49898L4.49932 7.49954Z" fill="white"/>
<path d="M6.99932 4.99969L4.99988 6.99913L6.99932 8.99857L8.99875 6.99913L6.99932 4.99969Z" fill="white"/>
<path d="M11.9991 -4.12763e-06L9.99963 1.99944L11.9991 3.99887L13.9985 1.99943L11.9991 -4.12763e-06Z" fill="white"/>
<path d="M9.4992 2.49986L7.49976 4.4993L9.4992 6.49874L11.4986 4.4993L9.4992 2.49986Z" fill="white"/>
<path d="M20.0008 12.0006L22.0002 14.0001L23.9997 12.0006L22.0002 10.0012L20.0008 12.0006Z" fill="white"/>
<path d="M17.5009 9.50062L19.5004 11.5001L21.4998 9.50062L19.5004 7.50118L17.5009 9.50062Z" fill="white"/>
<path d="M15.001 7.00062L17.0005 9.00006L18.9999 7.00062L17.0005 5.00118L15.001 7.00062Z" fill="white"/>
<path d="M12.501 4.50061L14.5005 6.50005L16.4999 4.50061L14.5005 2.50117L12.501 4.50061Z" fill="white"/>
<path d="M12.0001 5.20012L10.1 7.10023L12.0001 9.00035L13.9002 7.10023L12.0001 5.20012Z" fill="white"/>
<path d="M9.50122 7.89664L7.70044 9.69742L9.50122 11.4982L11.302 9.69742L9.50122 7.89664Z" fill="white"/>
<path d="M14.501 7.89673L12.7002 9.69751L14.501 11.4983L16.3018 9.69751L14.501 7.89673Z" fill="white"/>
<path d="M7.0004 10.5987L5.30078 12.2983L7.0004 13.9979L8.70001 12.2983L7.0004 10.5987Z" fill="white"/>
<path d="M12.0003 10.5988L10.3007 12.2984L12.0003 13.998L13.6999 12.2984L12.0003 10.5988Z" fill="white"/>
<path d="M16.9999 10.5988L15.3003 12.2984L16.9999 13.9981L18.6995 12.2984L16.9999 10.5988Z" fill="white"/>
<path d="M4.50153 13.2989L2.90125 14.8992L4.50153 16.4994L6.10182 14.8992L4.50153 13.2989Z" fill="white"/>
<path d="M9.50129 13.299L7.901 14.8992L9.50129 16.4995L11.1016 14.8992L9.50129 13.299Z" fill="white"/>
<path d="M14.501 13.2991L12.9008 14.8993L14.501 16.4996L16.1013 14.8993L14.501 13.2991Z" fill="white"/>
<path d="M19.5009 13.2991L17.9006 14.8994L19.5009 16.4997L21.1012 14.8994L19.5009 13.2991Z" fill="white"/>
<path d="M6.99977 16.1995L5.59998 17.5993L6.99977 18.9991L8.39956 17.5993L6.99977 16.1995Z" fill="white"/>
<path d="M11.9995 16.1996L10.5997 17.5994L11.9995 18.9992L13.3993 17.5994L11.9995 16.1996Z" fill="white"/>
<path d="M16.9993 16.1997L15.5995 17.5995L16.9993 18.9993L18.3991 17.5995L16.9993 16.1997Z" fill="white"/>
<path d="M9.49983 19.0983L8.30054 20.2976L9.49983 21.4969L10.6991 20.2976L9.49983 19.0983Z" fill="white"/>
<path d="M14.4996 19.0984L13.3003 20.2977L14.4996 21.497L15.6989 20.2977L14.4996 19.0984Z" fill="white"/>
<path d="M11.9999 21.9971L10.9993 22.9978L11.9999 23.9984L13.0005 22.9978L11.9999 21.9971Z" fill="white"/>
<path d="M31.9703 14.4154V18.1385H29.9998V6.01846C31.8827 6.01846 33.8188 6 35.7018 6C41.5789 6 41.5977 14.3785 35.7018 14.4123H31.9703V14.4154ZM31.9703 12.6338H35.7018C38.9578 12.6338 38.939 7.78769 35.7018 7.78769H31.9703V12.6338Z" fill="white"/>
<path d="M64.7716 14.5354C64.9311 15.8338 66.0196 16.6831 67.6054 16.6831C68.4843 16.6831 69.5947 16.3538 70.1202 15.7661L71.2994 16.8923C70.4017 17.8615 68.9066 18.3477 67.5679 18.3477C64.7184 18.3477 62.8887 16.5661 62.8887 13.8308C62.8887 11.2338 64.7372 9.38153 67.4459 9.38153C70.2453 9.38153 72.1439 11.0615 71.8092 14.5415H64.7716V14.5354ZM70.067 13.0308C69.9607 11.68 68.9598 10.9723 67.4991 10.9723C66.1791 10.9723 65.0875 11.6831 64.806 13.0308H70.067Z" fill="white"/>
<path d="M73.4451 18.139V6.03746H82.156V7.92361H75.4156V11.6098H81.1708V13.4098H75.4156V18.1359H73.4451V18.139Z" fill="white"/>
<path d="M94.0636 9.60309L91.699 15.7815L89.3219 9.60309H87.3826L90.7325 18.3046L90.5073 18.8954L89.2812 22.1015H91.2173L91.7053 20.8277L91.7334 20.7539L92.4466 18.8923L92.6718 18.3015L95.9998 9.60309H94.0636Z" fill="white"/>
<path d="M85.7781 6.02809H83.8076V18.1358H85.7781V6.02809Z" fill="white"/>
<path d="M48.7104 9.60308V10.9477C48.163 9.98154 46.9869 9.41539 45.7577 9.41539C43.2586 9.41539 41.2693 11.0092 41.2693 13.8646C41.2693 16.7723 43.1866 18.3815 45.7202 18.3662C46.7899 18.3662 48.1255 17.8492 48.7072 16.7631V18.1415H50.6777V9.60308H48.7104ZM45.8985 16.7015C44.3502 16.7015 43.0834 15.6277 43.0834 13.8615C43.0834 12.1139 44.3502 11.04 45.8985 11.04C49.6456 11.04 49.6456 16.7015 45.8985 16.7015Z" fill="white"/>
<path d="M61.6032 13.8923C61.6032 12.8 61.2654 11.7969 60.3865 10.8923L61.7345 9.56616L60.3427 8.19385L58.8163 9.69539C58.2439 9.44616 57.5464 9.36308 56.9772 9.36308C54.6188 9.36308 52.2761 10.8769 52.2792 13.8892C52.2792 16.2646 53.4114 18.1323 56.6393 18.24C58.7537 18.3108 59.7077 19.0739 59.7077 20.3323C59.7077 21.6092 58.2814 22.1754 56.9459 22.1754C55.504 22.1569 54.1308 21.4092 54.1809 20.0031H52.3699C52.3011 22.5046 54.1121 24 56.9459 24C59.2667 24 61.5907 22.7754 61.5907 20.3323C61.5907 19.2554 61.0808 18.0123 59.3042 17.3938C60.8463 16.7785 61.6032 15.4831 61.6032 13.8923ZM56.9772 16.6492C56.2734 16.6492 55.6228 16.4554 55.1192 16.0769C54.5906 15.68 54.2278 15.0831 54.134 14.3046C54.1183 14.1723 54.1089 14.0369 54.1089 13.8923C54.1089 12.0123 55.5008 11.1169 56.9772 11.1169C57.1023 11.1169 57.2274 11.1231 57.3494 11.1385C58.0719 11.2185 58.7287 11.5446 59.1791 12.0831C59.5607 12.5385 59.7953 13.1477 59.7953 13.8923C59.7922 15.52 58.5786 16.6492 56.9772 16.6492Z" fill="white"/>
<path d="M101.445 18H102.516V12.8828H107.68V11.9297H102.516V7.69531H108.133V6.72656H101.445V18Z" fill="white"/>
<path d="M110.352 18H111.383V12.75C111.383 11.3906 112.352 10.4297 113.664 10.4297C113.984 10.4297 114.258 10.4609 114.562 10.5391V9.52344C114.359 9.47656 114.078 9.44531 113.773 9.44531C112.633 9.44531 111.812 10.0078 111.484 10.9688H111.383V9.58594H110.352V18Z" fill="white"/>
<path d="M119.445 18.1406C121.305 18.1406 122.531 17.125 122.859 15.9844L122.883 15.9219H121.844L121.812 15.9766C121.539 16.6328 120.695 17.2109 119.469 17.2109C117.797 17.2109 116.719 16.0312 116.688 14.0625H123.008V13.625C123.008 11.1328 121.617 9.44531 119.359 9.44531C117.102 9.44531 115.633 11.1797 115.633 13.8047V13.8203C115.633 16.4609 117.086 18.1406 119.445 18.1406ZM119.359 10.3672C120.805 10.3672 121.844 11.3516 121.961 13.2188H116.695C116.828 11.3984 117.906 10.3672 119.359 10.3672Z" fill="white"/>
<path d="M128.617 18.1406C130.477 18.1406 131.703 17.125 132.031 15.9844L132.055 15.9219H131.016L130.984 15.9766C130.711 16.6328 129.867 17.2109 128.641 17.2109C126.969 17.2109 125.891 16.0312 125.859 14.0625H132.18V13.625C132.18 11.1328 130.789 9.44531 128.531 9.44531C126.273 9.44531 124.805 11.1797 124.805 13.8047V13.8203C124.805 16.4609 126.258 18.1406 128.617 18.1406ZM128.531 10.3672C129.977 10.3672 131.016 11.3516 131.133 13.2188H125.867C126 11.3984 127.078 10.3672 128.531 10.3672Z" fill="white"/>
</svg>
