<svg width="135" height="24" viewBox="0 0 135 24" fill="none" xmlns="http://www.w3.org/2000/svg">
<path d="M1.99944 9.99939L0 11.9988L1.99944 13.9983L3.99888 11.9988L1.99944 9.99939Z" fill="white"/>
<path d="M4.49932 7.49954L2.49988 9.49898L4.49932 11.4984L6.49876 9.49898L4.49932 7.49954Z" fill="white"/>
<path d="M6.99932 4.99969L4.99988 6.99913L6.99932 8.99857L8.99875 6.99913L6.99932 4.99969Z" fill="white"/>
<path d="M11.9991 -3.12929e-07L9.99963 1.99944L11.9991 3.99888L13.9985 1.99944L11.9991 -3.12929e-07Z" fill="white"/>
<path d="M9.4992 2.49986L7.49976 4.49929L9.4992 6.49873L11.4986 4.49929L9.4992 2.49986Z" fill="white"/>
<path d="M20.0008 12.0006L22.0002 14.0001L23.9997 12.0006L22.0002 10.0012L20.0008 12.0006Z" fill="white"/>
<path d="M17.5009 9.50062L19.5004 11.5001L21.4998 9.50062L19.5004 7.50118L17.5009 9.50062Z" fill="white"/>
<path d="M15.001 7.00061L17.0005 9.00005L18.9999 7.00061L17.0005 5.00117L15.001 7.00061Z" fill="white"/>
<path d="M12.501 4.50061L14.5005 6.50005L16.4999 4.50061L14.5005 2.50117L12.501 4.50061Z" fill="white"/>
<path d="M12.0001 5.20013L10.1 7.10024L12.0001 9.00035L13.9002 7.10024L12.0001 5.20013Z" fill="white"/>
<path d="M9.50122 7.89664L7.70044 9.69742L9.50122 11.4982L11.302 9.69742L9.50122 7.89664Z" fill="white"/>
<path d="M14.501 7.89673L12.7002 9.69751L14.501 11.4983L16.3018 9.69751L14.501 7.89673Z" fill="white"/>
<path d="M7.0004 10.5987L5.30078 12.2983L7.0004 13.9979L8.70001 12.2983L7.0004 10.5987Z" fill="white"/>
<path d="M12.0003 10.5988L10.3007 12.2984L12.0003 13.998L13.6999 12.2984L12.0003 10.5988Z" fill="white"/>
<path d="M16.9999 10.5988L15.3003 12.2985L16.9999 13.9981L18.6995 12.2985L16.9999 10.5988Z" fill="white"/>
<path d="M4.50153 13.2989L2.90125 14.8992L4.50153 16.4994L6.10182 14.8992L4.50153 13.2989Z" fill="white"/>
<path d="M9.50129 13.299L7.901 14.8993L9.50129 16.4995L11.1016 14.8993L9.50129 13.299Z" fill="white"/>
<path d="M14.501 13.2991L12.9008 14.8993L14.501 16.4996L16.1013 14.8993L14.501 13.2991Z" fill="white"/>
<path d="M19.5009 13.2991L17.9006 14.8994L19.5009 16.4997L21.1012 14.8994L19.5009 13.2991Z" fill="white"/>
<path d="M6.99977 16.1995L5.59998 17.5993L6.99977 18.9991L8.39956 17.5993L6.99977 16.1995Z" fill="white"/>
<path d="M11.9995 16.1996L10.5997 17.5994L11.9995 18.9992L13.3993 17.5994L11.9995 16.1996Z" fill="white"/>
<path d="M16.9993 16.1997L15.5995 17.5995L16.9993 18.9993L18.3991 17.5995L16.9993 16.1997Z" fill="white"/>
<path d="M9.49983 19.0983L8.30054 20.2976L9.49983 21.4969L10.6991 20.2976L9.49983 19.0983Z" fill="white"/>
<path d="M14.4996 19.0984L13.3003 20.2977L14.4996 21.497L15.6989 20.2977L14.4996 19.0984Z" fill="white"/>
<path d="M11.9999 21.9971L10.9993 22.9978L11.9999 23.9984L13.0005 22.9978L11.9999 21.9971Z" fill="white"/>
<path d="M31.9703 14.4154V18.1385H29.9998V6.01846C31.8827 6.01846 33.8188 6 35.7018 6C41.5789 6 41.5977 14.3785 35.7018 14.4123H31.9703V14.4154ZM31.9703 12.6338H35.7018C38.9578 12.6338 38.939 7.78769 35.7018 7.78769H31.9703V12.6338Z" fill="white"/>
<path d="M64.7716 14.5354C64.9311 15.8338 66.0196 16.6831 67.6054 16.6831C68.4843 16.6831 69.5947 16.3538 70.1202 15.7662L71.2994 16.8923C70.4017 17.8615 68.9066 18.3477 67.5679 18.3477C64.7184 18.3477 62.8887 16.5662 62.8887 13.8308C62.8887 11.2338 64.7372 9.38154 67.4459 9.38154C70.2453 9.38154 72.1439 11.0615 71.8092 14.5415H64.7716V14.5354ZM70.067 13.0308C69.9607 11.68 68.9598 10.9723 67.4991 10.9723C66.1791 10.9723 65.0875 11.6831 64.806 13.0308H70.067Z" fill="white"/>
<path d="M73.4451 18.139V6.03746H82.156V7.92361H75.4156V11.6098H81.1708V13.4098H75.4156V18.1359H73.4451V18.139Z" fill="white"/>
<path d="M94.0636 9.60308L91.699 15.7815L89.3219 9.60308H87.3826L90.7325 18.3046L90.5073 18.8954L89.2812 22.1015H91.2173L91.7053 20.8277L91.7334 20.7538L92.4466 18.8923L92.6718 18.3015L95.9998 9.60308H94.0636Z" fill="white"/>
<path d="M85.7781 6.0281H83.8076V18.1358H85.7781V6.0281Z" fill="white"/>
<path d="M48.7104 9.60307V10.9477C48.163 9.98154 46.9869 9.41538 45.7577 9.41538C43.2586 9.41538 41.2693 11.0092 41.2693 13.8646C41.2693 16.7723 43.1866 18.3815 45.7202 18.3661C46.7899 18.3661 48.1255 17.8492 48.7072 16.7631V18.1415H50.6777V9.60307H48.7104ZM45.8985 16.7015C44.3502 16.7015 43.0834 15.6277 43.0834 13.8615C43.0834 12.1138 44.3502 11.04 45.8985 11.04C49.6456 11.04 49.6456 16.7015 45.8985 16.7015Z" fill="white"/>
<path d="M61.6032 13.8923C61.6032 12.8 61.2654 11.7969 60.3865 10.8923L61.7345 9.56616L60.3427 8.19385L58.8163 9.69539C58.2439 9.44616 57.5464 9.36308 56.9772 9.36308C54.6188 9.36308 52.2761 10.8769 52.2792 13.8892C52.2792 16.2646 53.4114 18.1323 56.6393 18.24C58.7537 18.3108 59.7077 19.0739 59.7077 20.3323C59.7077 21.6092 58.2814 22.1754 56.9459 22.1754C55.504 22.1569 54.1308 21.4092 54.1809 20.0031H52.3699C52.3011 22.5046 54.1121 24 56.9459 24C59.2667 24 61.5907 22.7754 61.5907 20.3323C61.5907 19.2554 61.0808 18.0123 59.3042 17.3938C60.8463 16.7785 61.6032 15.4831 61.6032 13.8923ZM56.9772 16.6492C56.2734 16.6492 55.6228 16.4554 55.1192 16.0769C54.5906 15.68 54.2278 15.0831 54.134 14.3046C54.1183 14.1723 54.1089 14.0369 54.1089 13.8923C54.1089 12.0123 55.5008 11.1169 56.9772 11.1169C57.1023 11.1169 57.2274 11.1231 57.3494 11.1385C58.0719 11.2185 58.7287 11.5446 59.1791 12.0831C59.5607 12.5385 59.7953 13.1477 59.7953 13.8923C59.7922 15.52 58.5786 16.6492 56.9772 16.6492Z" fill="white"/>
<path d="M106.008 18.2344C108.844 18.2344 110.711 16.3281 110.711 13.4844V12.3828H106.156V13.3281H109.641V13.5781C109.641 15.7656 108.195 17.2422 106.008 17.2422C103.609 17.2422 102.086 15.3438 102.086 12.3438V12.3281C102.086 9.36719 103.617 7.48438 106.008 7.48438C107.781 7.48438 109.047 8.35156 109.516 9.94531L109.539 10.0156H110.609L110.594 9.9375C110.148 7.83594 108.406 6.49219 106.008 6.49219C102.977 6.49219 100.992 8.78906 100.992 12.3281V12.3438C100.992 15.9297 102.961 18.2344 106.008 18.2344Z" fill="white"/>
<path d="M116.484 18.1406C118.836 18.1406 120.312 16.4766 120.312 13.7969V13.7812C120.312 11.1016 118.836 9.44531 116.484 9.44531C114.133 9.44531 112.664 11.1016 112.664 13.7812V13.7969C112.664 16.4766 114.133 18.1406 116.484 18.1406ZM116.484 17.2188C114.75 17.2188 113.719 15.9219 113.719 13.7969V13.7812C113.719 11.6562 114.75 10.3672 116.484 10.3672C118.219 10.3672 119.25 11.6562 119.25 13.7812V13.7969C119.25 15.9219 118.219 17.2188 116.484 17.2188Z" fill="white"/>
<path d="M122.602 18H123.633V6.23438H122.602V18Z" fill="white"/>
<path d="M129.484 18.1406C130.781 18.1406 131.82 17.4531 132.312 16.3203H132.406V18H133.445V6.23438H132.406V11.2266H132.312C131.844 10.1406 130.758 9.44531 129.484 9.44531C127.352 9.44531 125.93 11.1797 125.93 13.7891V13.8047C125.93 16.3984 127.359 18.1406 129.484 18.1406ZM129.703 17.2188C128.039 17.2188 126.984 15.8828 126.984 13.7969V13.7812C126.984 11.7031 128.039 10.3672 129.703 10.3672C131.359 10.3672 132.43 11.7109 132.43 13.7812V13.7969C132.43 15.875 131.359 17.2188 129.703 17.2188Z" fill="white"/>
</svg>
