<svg width="96" height="24" viewBox="0 0 96 24" fill="none" xmlns="http://www.w3.org/2000/svg">
<path d="M1.99944 9.9994L0 11.9988L1.99944 13.9983L3.99888 11.9988L1.99944 9.9994Z" fill="white"/>
<path d="M4.49935 7.49954L2.49991 9.49898L4.49935 11.4984L6.49879 9.49898L4.49935 7.49954Z" fill="white"/>
<path d="M6.99926 4.99969L4.99982 6.99913L6.99926 8.99857L8.9987 6.99913L6.99926 4.99969Z" fill="white"/>
<path d="M11.9991 0L9.99967 1.99944L11.9991 3.99888L13.9986 1.99944L11.9991 0Z" fill="white"/>
<path d="M9.4992 2.49986L7.49976 4.4993L9.4992 6.49873L11.4986 4.4993L9.4992 2.49986Z" fill="white"/>
<path d="M20.0009 12.0006L22.0003 14.0001L23.9997 12.0006L22.0003 10.0012L20.0009 12.0006Z" fill="white"/>
<path d="M17.5009 9.50062L19.5004 11.5001L21.4998 9.50062L19.5004 7.50118L17.5009 9.50062Z" fill="white"/>
<path d="M15.001 7.00062L17.0005 9.00005L18.9999 7.00061L17.0005 5.00118L15.001 7.00062Z" fill="white"/>
<path d="M12.5011 4.50061L14.5005 6.50005L16.5 4.50061L14.5005 2.50117L12.5011 4.50061Z" fill="white"/>
<path d="M12.0001 5.20013L10.1 7.10024L12.0001 9.00035L13.9002 7.10024L12.0001 5.20013Z" fill="white"/>
<path d="M9.50117 7.89664L7.70039 9.69742L9.50117 11.4982L11.302 9.69742L9.50117 7.89664Z" fill="white"/>
<path d="M14.5009 7.89673L12.7002 9.69751L14.5009 11.4983L16.3017 9.69751L14.5009 7.89673Z" fill="white"/>
<path d="M7.00045 10.5987L5.30084 12.2983L7.00045 13.9979L8.70007 12.2983L7.00045 10.5987Z" fill="white"/>
<path d="M12.0002 10.5988L10.3006 12.2984L12.0002 13.998L13.6998 12.2984L12.0002 10.5988Z" fill="white"/>
<path d="M17 10.5988L15.3003 12.2985L17 13.9981L18.6996 12.2985L17 10.5988Z" fill="white"/>
<path d="M4.50154 13.2989L2.90126 14.8992L4.50154 16.4994L6.10183 14.8992L4.50154 13.2989Z" fill="white"/>
<path d="M9.50131 13.299L7.90102 14.8993L9.50131 16.4995L11.1016 14.8993L9.50131 13.299Z" fill="white"/>
<path d="M14.5011 13.2991L12.9008 14.8993L14.5011 16.4996L16.1014 14.8993L14.5011 13.2991Z" fill="white"/>
<path d="M19.5009 13.2991L17.9006 14.8994L19.5009 16.4997L21.1012 14.8994L19.5009 13.2991Z" fill="white"/>
<path d="M6.99977 16.1995L5.59998 17.5993L6.99977 18.9991L8.39956 17.5993L6.99977 16.1995Z" fill="white"/>
<path d="M11.9996 16.1996L10.5998 17.5994L11.9996 18.9992L13.3993 17.5994L11.9996 16.1996Z" fill="white"/>
<path d="M16.9993 16.1997L15.5995 17.5995L16.9993 18.9993L18.3991 17.5995L16.9993 16.1997Z" fill="white"/>
<path d="M9.49983 19.0983L8.30054 20.2976L9.49983 21.4969L10.6991 20.2976L9.49983 19.0983Z" fill="white"/>
<path d="M14.4996 19.0984L13.3003 20.2977L14.4996 21.497L15.6989 20.2977L14.4996 19.0984Z" fill="white"/>
<path d="M11.9999 21.9971L10.9993 22.9978L11.9999 23.9984L13.0005 22.9978L11.9999 21.9971Z" fill="white"/>
<path d="M31.9703 18.1369H29.9997V6.01685C31.8827 6.01685 33.8188 5.99839 35.7017 5.99839C41.5789 5.99839 41.5977 14.3769 35.7017 14.4107H31.9703V18.1369ZM31.9703 12.6322H35.7017C38.9578 12.6322 38.939 7.78609 35.7017 7.78609H31.9703V12.6322Z" fill="white"/>
<path d="M64.7716 14.5338C64.9312 15.8322 66.0196 16.6815 67.6054 16.6815C68.4844 16.6815 69.5947 16.3522 70.1202 15.7645L71.2994 16.8907C70.4017 17.8599 68.9066 18.3461 67.5679 18.3461C64.7185 18.3461 62.8887 16.5645 62.8887 13.8292C62.8887 11.2322 64.7372 9.37993 67.4459 9.37993C70.2453 9.37993 72.1439 11.0599 71.8092 14.5399H64.7716V14.5338ZM70.067 13.0292C69.9607 11.6784 68.9598 10.9707 67.4991 10.9707C66.1792 10.9707 65.0876 11.6815 64.8061 13.0292H70.067Z" fill="white"/>
<path d="M73.4451 18.1374V6.03585H82.156V7.92201H75.4156V11.6082H81.1708V13.4082H75.4156V18.1343H73.4451V18.1374Z" fill="white"/>
<path d="M94.0636 9.60147L91.699 15.7799L89.3219 9.60147H87.3826L90.7325 18.303L90.5073 18.8938L89.2812 22.0999H91.2173L91.7052 20.8261L91.7334 20.7522L92.4465 18.8907L92.6717 18.2999L95.9997 9.60147H94.0636Z" fill="white"/>
<path d="M85.778 6.02649H83.8075V18.1342H85.778V6.02649Z" fill="white"/>
<path d="M48.7103 9.60147V10.9461C48.163 9.97993 46.9869 9.41378 45.7577 9.41378C43.2585 9.41378 41.2693 11.0076 41.2693 13.863C41.2693 16.7707 43.1866 18.3799 45.7201 18.3645C46.7898 18.3645 48.1254 17.8476 48.7072 16.7615V18.1399H50.6777V9.60147H48.7103ZM45.8984 16.6999C44.3502 16.6999 43.0834 15.6261 43.0834 13.8599C43.0834 12.1122 44.3502 11.0384 45.8984 11.0384C49.6455 11.0384 49.6455 16.6999 45.8984 16.6999Z" fill="white"/>
<path d="M61.6032 13.8907C61.6032 12.7984 61.2654 11.7953 60.3865 10.8907L61.7345 9.56455L60.3427 8.19224L58.8163 9.69378C58.2439 9.44455 57.5464 9.36147 56.9771 9.36147C54.6188 9.36147 52.276 10.8753 52.2792 13.8876C52.2792 16.263 53.4114 18.1307 56.6393 18.2384C58.7537 18.3092 59.7077 19.0722 59.7077 20.3307C59.7077 21.6076 58.2814 22.1738 56.9459 22.1738C55.5039 22.1553 54.1308 21.4076 54.1809 20.0015H52.3699C52.3011 22.503 54.1121 23.9984 56.9459 23.9984C59.2667 23.9984 61.5907 22.7738 61.5907 20.3307C61.5907 19.2538 61.0808 18.0107 59.3042 17.3922C60.8462 16.7769 61.6032 15.4815 61.6032 13.8907ZM56.9771 16.6476C56.2734 16.6476 55.6228 16.4538 55.1192 16.0753C54.5906 15.6784 54.2278 15.0815 54.134 14.303C54.1183 14.1707 54.1089 14.0353 54.1089 13.8907C54.1089 12.0107 55.5008 11.1153 56.9771 11.1153C57.1023 11.1153 57.2274 11.1215 57.3494 11.1369C58.0719 11.2169 58.7287 11.543 59.1791 12.0815C59.5607 12.5369 59.7953 13.1461 59.7953 13.8907C59.7922 15.5184 58.5786 16.6476 56.9771 16.6476Z" fill="white"/>
</svg>
