<svg xmlns="http://www.w3.org/2000/svg" viewBox="0 0 354.28 271.71"><defs><style>.cls-1{fill:#000541;}</style></defs><title>Asset 1</title><g id="Layer_2" data-name="Layer 2"><g id="Layer_1-2" data-name="Layer 1"><rect class="cls-1" x="103.47" y="68.32" width="18.25" height="18.25" transform="translate(-21.78 102.31) rotate(-45)"/><rect class="cls-1" x="119.61" y="52.19" width="18.25" height="18.25" transform="translate(-5.65 108.99) rotate(-45)"/><rect class="cls-1" x="135.74" y="36.05" width="18.25" height="18.25" transform="translate(10.49 115.67) rotate(-45)"/><rect class="cls-1" x="168.01" y="3.78" width="18.25" height="18.25" transform="translate(42.76 129.04) rotate(-45)"/><rect class="cls-1" x="151.88" y="19.92" width="18.25" height="18.25" transform="translate(26.62 122.36) rotate(-45)"/><rect class="cls-1" x="232.56" y="68.32" width="18.25" height="18.25" transform="translate(357.81 303.11) rotate(-135)"/><rect class="cls-1" x="216.42" y="52.19" width="18.25" height="18.25" transform="translate(341.68 264.15) rotate(-135)"/><rect class="cls-1" x="200.28" y="36.05" width="18.25" height="18.25" transform="translate(325.54 225.2) rotate(-135)"/><rect class="cls-1" x="184.15" y="19.92" width="18.25" height="18.25" transform="translate(309.41 186.25) rotate(-135)"/><rect class="cls-1" x="168.47" y="37.15" width="17.34" height="17.34" transform="translate(19.48 138.68) rotate(-45)"/><rect class="cls-1" x="152.79" y="54.39" width="16.43" height="16.43" transform="translate(2.89 132.19) rotate(-45)"/><rect class="cls-1" x="185.06" y="54.39" width="16.43" height="16.43" transform="translate(12.34 155) rotate(-45)"/><rect class="cls-1" x="137.11" y="71.63" width="15.52" height="15.52" transform="translate(-13.7 125.69) rotate(-45)"/><rect class="cls-1" x="169.38" y="71.63" width="15.52" height="15.52" transform="translate(-4.25 148.51) rotate(-45)"/><rect class="cls-1" x="201.65" y="71.63" width="15.52" height="15.52" transform="translate(5.2 171.33) rotate(-45)"/><rect class="cls-1" x="121.43" y="88.86" width="14.6" height="14.6" transform="translate(-30.29 119.2) rotate(-45)"/><rect class="cls-1" x="153.71" y="88.86" width="14.6" height="14.6" transform="translate(-20.84 142.02) rotate(-45)"/><rect class="cls-1" x="185.98" y="88.86" width="14.6" height="14.6" transform="translate(-11.39 164.83) rotate(-45)"/><rect class="cls-1" x="218.25" y="88.86" width="14.6" height="14.6" transform="translate(-1.94 187.65) rotate(-45)"/><rect class="cls-1" x="138.48" y="107.2" width="12.78" height="12.78" transform="translate(-37.89 135.71) rotate(-45)"/><rect class="cls-1" x="170.75" y="107.2" width="12.78" height="12.78" transform="translate(-28.44 158.53) rotate(-45)"/><rect class="cls-1" x="203.02" y="107.2" width="12.78" height="12.78" transform="translate(-18.99 181.35) rotate(-45)"/><rect class="cls-1" x="155.53" y="125.54" width="10.95" height="10.95" transform="translate(-45.49 152.22) rotate(-45)"/><rect class="cls-1" x="187.8" y="125.54" width="10.95" height="10.95" transform="translate(-36.03 175.04) rotate(-45)"/><rect class="cls-1" x="172.58" y="143.88" width="9.13" height="9.13" transform="translate(-53.08 168.74) rotate(-45)"/><path class="cls-1" d="M10.58,219.37v20.31H0V173.56c10.11,0,20.5-.09,30.6-.09,31.55,0,31.65,45.71,0,45.9Zm0-9.73h20c17.48,0,17.38-26.44,0-26.44h-20Z"/><path class="cls-1" d="M186.65,220c.85,7.09,6.71,11.72,15.21,11.72,4.72,0,10.67-1.8,13.5-5l6.33,6.14c-4.82,5.29-12.84,7.93-20,7.93-15.3,0-25.13-9.73-25.13-24.65,0-14.17,9.92-24.28,24.47-24.28,15,0,25.22,9.17,23.42,28.15Zm28.43-8.21c-.57-7.37-6-11.24-13.79-11.24-7.08,0-12.94,3.87-14.45,11.24Z"/><path class="cls-1" d="M233.21,239.68v-66H280V184H243.79v20.12h30.88v9.82H243.79v25.79Z"/><polygon class="cls-1" points="343.89 193.12 331.19 226.82 318.43 193.12 308.03 193.12 326.01 240.6 324.8 243.82 318.21 261.31 328.6 261.31 331.22 254.36 331.37 253.96 335.2 243.81 336.41 240.59 354.28 193.12 343.89 193.12"/><rect class="cls-1" x="288.84" y="173.61" width="10.58" height="66.07"/><path class="cls-1" d="M100.43,193.11v7.33c-2.94-5.26-9.25-8.37-15.84-8.37-13.42,0-24.09,8.69-24.09,24.28,0,15.87,10.3,24.65,23.9,24.56,5.75,0,12.9-2.82,16-8.75v7.52H111V193.11ZM85.34,231.84c-8.31,0-15.11-5.86-15.11-15.49S77,201,85.34,201C105.46,201,105.46,231.84,85.34,231.84Z"/><path class="cls-1" d="M169.65,216.53a22.59,22.59,0,0,0-6.54-16.37l7.23-7.23-7.47-7.49-8.2,8.2a25.15,25.15,0,0,0-9.87-1.81c-12.66,0-25.22,8.26-25.22,24.7,0,12.95,6.08,23.15,23.4,23.74,11.35.39,16.46,4.55,16.46,11.42s-7.65,10.06-14.82,10.06c-7.75-.1-15.12-4.18-14.84-11.85h-9.73c-.37,13.64,9.36,21.81,24.57,21.81,12.46,0,24.93-6.68,24.93-20,0-5.88-2.74-12.65-12.28-16C165.58,232.26,169.65,225.19,169.65,216.53Zm-24.85,15a16.32,16.32,0,0,1-10-3.13,13.81,13.81,0,0,1-5.29-9.67,18.11,18.11,0,0,1-.13-2.24c0-10.26,7.46-15.14,15.39-15.14a16.65,16.65,0,0,1,2,.12,14.71,14.71,0,0,1,9.81,5.15,15.15,15.15,0,0,1,3.3,9.87C159.91,225.4,153.4,231.57,144.8,231.57Z"/></g></g></svg>