<svg width="165" height="24" viewBox="0 0 165 24" fill="none" xmlns="http://www.w3.org/2000/svg">
<path d="M1.99944 9.9994L0 11.9988L1.99944 13.9983L3.99888 11.9988L1.99944 9.9994Z" fill="white"/>
<path d="M4.49932 7.49954L2.49988 9.49898L4.49932 11.4984L6.49876 9.49898L4.49932 7.49954Z" fill="white"/>
<path d="M6.99932 4.99969L4.99988 6.99913L6.99932 8.99857L8.99875 6.99913L6.99932 4.99969Z" fill="white"/>
<path d="M11.9991 -1.2666e-06L9.99963 1.99944L11.9991 3.99888L13.9985 1.99944L11.9991 -1.2666e-06Z" fill="white"/>
<path d="M9.4992 2.49986L7.49976 4.49929L9.4992 6.49873L11.4986 4.49929L9.4992 2.49986Z" fill="white"/>
<path d="M20.0008 12.0006L22.0002 14.0001L23.9997 12.0006L22.0002 10.0012L20.0008 12.0006Z" fill="white"/>
<path d="M17.5009 9.50062L19.5004 11.5001L21.4998 9.50062L19.5004 7.50118L17.5009 9.50062Z" fill="white"/>
<path d="M15.001 7.00061L17.0005 9.00005L18.9999 7.00061L17.0005 5.00117L15.001 7.00061Z" fill="white"/>
<path d="M12.501 4.50061L14.5005 6.50005L16.4999 4.50061L14.5005 2.50117L12.501 4.50061Z" fill="white"/>
<path d="M12.0001 5.20013L10.1 7.10024L12.0001 9.00035L13.9002 7.10024L12.0001 5.20013Z" fill="white"/>
<path d="M9.50122 7.89664L7.70044 9.69742L9.50122 11.4982L11.302 9.69742L9.50122 7.89664Z" fill="white"/>
<path d="M14.501 7.89673L12.7002 9.69751L14.501 11.4983L16.3018 9.69751L14.501 7.89673Z" fill="white"/>
<path d="M7.0004 10.5987L5.30078 12.2983L7.0004 13.9979L8.70001 12.2983L7.0004 10.5987Z" fill="white"/>
<path d="M12.0003 10.5988L10.3007 12.2984L12.0003 13.998L13.6999 12.2984L12.0003 10.5988Z" fill="white"/>
<path d="M16.9999 10.5988L15.3003 12.2985L16.9999 13.9981L18.6995 12.2985L16.9999 10.5988Z" fill="white"/>
<path d="M4.50153 13.2989L2.90125 14.8992L4.50153 16.4994L6.10182 14.8992L4.50153 13.2989Z" fill="white"/>
<path d="M9.50129 13.299L7.901 14.8993L9.50129 16.4995L11.1016 14.8993L9.50129 13.299Z" fill="white"/>
<path d="M14.501 13.299L12.9008 14.8993L14.501 16.4996L16.1013 14.8993L14.501 13.299Z" fill="white"/>
<path d="M19.5009 13.2991L17.9006 14.8994L19.5009 16.4997L21.1012 14.8994L19.5009 13.2991Z" fill="white"/>
<path d="M6.99977 16.1995L5.59998 17.5993L6.99977 18.9991L8.39956 17.5993L6.99977 16.1995Z" fill="white"/>
<path d="M11.9995 16.1996L10.5997 17.5994L11.9995 18.9992L13.3993 17.5994L11.9995 16.1996Z" fill="white"/>
<path d="M16.9993 16.1997L15.5995 17.5995L16.9993 18.9993L18.3991 17.5995L16.9993 16.1997Z" fill="white"/>
<path d="M9.49983 19.0983L8.30054 20.2976L9.49983 21.4969L10.6991 20.2976L9.49983 19.0983Z" fill="white"/>
<path d="M14.4996 19.0984L13.3003 20.2977L14.4996 21.497L15.6989 20.2977L14.4996 19.0984Z" fill="white"/>
<path d="M11.9999 21.9971L10.9993 22.9978L11.9999 23.9984L13.0005 22.9978L11.9999 21.9971Z" fill="white"/>
<path d="M31.9703 14.4154V18.1385H29.9998V6.01846C31.8827 6.01846 33.8188 6 35.7018 6C41.5789 6 41.5977 14.3785 35.7018 14.4123H31.9703V14.4154ZM31.9703 12.6338H35.7018C38.9578 12.6338 38.939 7.78769 35.7018 7.78769H31.9703V12.6338Z" fill="white"/>
<path d="M64.7716 14.5354C64.9311 15.8338 66.0196 16.6831 67.6054 16.6831C68.4843 16.6831 69.5947 16.3538 70.1202 15.7662L71.2994 16.8923C70.4017 17.8615 68.9066 18.3477 67.5679 18.3477C64.7184 18.3477 62.8887 16.5662 62.8887 13.8308C62.8887 11.2338 64.7372 9.38154 67.4459 9.38154C70.2453 9.38154 72.1439 11.0615 71.8092 14.5415H64.7716V14.5354ZM70.067 13.0308C69.9607 11.68 68.9598 10.9723 67.4991 10.9723C66.1791 10.9723 65.0875 11.6831 64.806 13.0308H70.067Z" fill="white"/>
<path d="M73.4451 18.139V6.03746H82.156V7.92361H75.4156V11.6098H81.1708V13.4098H75.4156V18.1359H73.4451V18.139Z" fill="white"/>
<path d="M94.0636 9.60308L91.699 15.7815L89.3219 9.60308H87.3826L90.7325 18.3046L90.5073 18.8954L89.2812 22.1015H91.2173L91.7053 20.8277L91.7334 20.7538L92.4466 18.8923L92.6718 18.3015L95.9998 9.60308H94.0636Z" fill="white"/>
<path d="M85.7781 6.0281H83.8076V18.1358H85.7781V6.0281Z" fill="white"/>
<path d="M48.7104 9.60308V10.9477C48.163 9.98154 46.9869 9.41538 45.7577 9.41538C43.2586 9.41538 41.2693 11.0092 41.2693 13.8646C41.2693 16.7723 43.1866 18.3815 45.7202 18.3661C46.7899 18.3661 48.1255 17.8492 48.7072 16.7631V18.1415H50.6777V9.60308H48.7104ZM45.8985 16.7015C44.3502 16.7015 43.0834 15.6277 43.0834 13.8615C43.0834 12.1138 44.3502 11.04 45.8985 11.04C49.6456 11.04 49.6456 16.7015 45.8985 16.7015Z" fill="white"/>
<path d="M61.6032 13.8923C61.6032 12.8 61.2654 11.7969 60.3865 10.8923L61.7345 9.56615L60.3427 8.19385L58.8163 9.69538C58.2439 9.44615 57.5464 9.36308 56.9772 9.36308C54.6188 9.36308 52.2761 10.8769 52.2792 13.8892C52.2792 16.2646 53.4114 18.1323 56.6393 18.24C58.7537 18.3108 59.7077 19.0738 59.7077 20.3323C59.7077 21.6092 58.2814 22.1754 56.9459 22.1754C55.504 22.1569 54.1308 21.4092 54.1809 20.0031H52.3699C52.3011 22.5046 54.1121 24 56.9459 24C59.2667 24 61.5907 22.7754 61.5907 20.3323C61.5907 19.2554 61.0808 18.0123 59.3042 17.3938C60.8463 16.7785 61.6032 15.4831 61.6032 13.8923ZM56.9772 16.6492C56.2734 16.6492 55.6228 16.4554 55.1192 16.0769C54.5906 15.68 54.2278 15.0831 54.134 14.3046C54.1183 14.1723 54.1089 14.0369 54.1089 13.8923C54.1089 12.0123 55.5008 11.1169 56.9772 11.1169C57.1023 11.1169 57.2274 11.1231 57.3494 11.1385C58.0719 11.2185 58.7287 11.5446 59.1791 12.0831C59.5607 12.5385 59.7953 13.1477 59.7953 13.8923C59.7922 15.52 58.5786 16.6492 56.9772 16.6492Z" fill="white"/>
<path d="M101.445 18H102.516V13.75H105.445C107.594 13.75 109.062 12.3281 109.062 10.2344V10.2188C109.062 8.125 107.594 6.72656 105.445 6.72656H101.445V18ZM105.195 7.67969C106.93 7.67969 107.977 8.64062 107.977 10.2266V10.2422C107.977 11.8359 106.93 12.7969 105.195 12.7969H102.516V7.67969H105.195Z" fill="white"/>
<path d="M111.336 18H112.367V6.23438H111.336V18Z" fill="white"/>
<path d="M117.406 18.1406C118.648 18.1406 119.656 17.5547 120.156 16.5547H120.25V18H121.289V12.25C121.289 10.4766 120.141 9.44531 118.172 9.44531C116.43 9.44531 115.156 10.3047 114.938 11.6484L114.93 11.6797H115.969L115.977 11.6641C116.195 10.8281 117 10.3672 118.141 10.3672C119.5 10.3672 120.25 11.0234 120.25 12.2578V13.0469L117.625 13.2188C115.68 13.3516 114.594 14.2031 114.594 15.6641V15.6797C114.594 17.1797 115.781 18.1406 117.406 18.1406ZM115.648 15.6641V15.6484C115.648 14.6953 116.336 14.1562 117.766 14.0625L120.25 13.8906V14.8672C120.25 16.2031 119.109 17.2344 117.602 17.2344C116.469 17.2344 115.648 16.625 115.648 15.6641Z" fill="white"/>
<path d="M126.664 18.0547C126.914 18.0547 127.148 18.0312 127.383 17.9922V17.1016C127.172 17.125 127.016 17.1328 126.781 17.1328C125.828 17.1328 125.461 16.7031 125.461 15.6719V10.4531H127.383V9.58594H125.461V7.39844H124.391V9.58594H123.039V10.4531H124.391V15.9062C124.391 17.4375 125.055 18.0547 126.664 18.0547Z" fill="white"/>
<path d="M130.109 7.83594C130.523 7.83594 130.867 7.5 130.867 7.07812C130.867 6.65625 130.523 6.32031 130.109 6.32031C129.688 6.32031 129.344 6.65625 129.344 7.07812C129.344 7.5 129.688 7.83594 130.109 7.83594ZM129.586 18H130.617V9.58594H129.586V18Z" fill="white"/>
<path d="M133.305 18H134.336V13C134.336 11.4141 135.344 10.3672 136.828 10.3672C138.289 10.3672 139.016 11.1875 139.016 12.7891V18H140.047V12.5312C140.047 10.5703 138.977 9.44531 137.102 9.44531C135.789 9.44531 134.883 10.0469 134.438 11.0625H134.336V9.58594H133.305V18Z" fill="white"/>
<path d="M145.5 18.1406C146.805 18.1406 147.75 17.5469 148.164 16.5312H148.258V18H149.289V9.58594H148.258V14.5859C148.258 16.1797 147.32 17.2188 145.75 17.2188C144.305 17.2188 143.578 16.3672 143.578 14.7969V9.58594H142.547V15.0547C142.547 16.9844 143.609 18.1406 145.5 18.1406Z" fill="white"/>
<path d="M151.93 18H152.961V12.8359C152.961 11.4609 153.898 10.3672 155.117 10.3672C156.281 10.3672 157.047 11.1562 157.047 12.3672V18H158.078V12.6641C158.078 11.3594 158.945 10.3672 160.242 10.3672C161.508 10.3672 162.172 11.1016 162.172 12.4766V18H163.211V12.2422C163.211 10.4609 162.234 9.44531 160.547 9.44531C159.336 9.44531 158.352 10.0938 157.922 11.1016H157.82C157.461 10.0938 156.617 9.44531 155.438 9.44531C154.289 9.44531 153.422 10.0625 153.062 11.0703H152.961V9.58594H151.93V18Z" fill="white"/>
</svg>
